# This file uses centimeters as units for non-parametric coordinates.

mtllib majing.mtl
g default
v -0.155497 0.014894 0.009388
v 0.175497 0.014894 0.009388
v -0.155497 0.056268 0.009388
v 0.175497 0.056268 0.009388
vt 0.000000 0.000000
vt 1.000000 0.000000
vt 1.000000 1.000000
vt 0.000000 1.000000
vn 0.000000 0.000000 1.000000
vn 0.000000 0.000000 1.000000
vn 0.000000 0.000000 1.000000
vn 0.000000 0.000000 1.000000
s off
g majing:eyebrow
usemtl majing:lambert13SG
f 1/1/1 2/2/2 4/3/3 3/4/4
g default
v -0.121612 -0.038267 0.013091
v 0.137753 -0.038267 0.013091
v -0.121612 0.038822 0.013091
v 0.137753 0.038822 0.013091
vt 0.000000 0.000000
vt 1.000000 0.000000
vt 1.000000 1.000000
vt 0.000000 1.000000
vn 0.000000 0.000000 1.000000
vn 0.000000 0.000000 1.000000
vn 0.000000 0.000000 1.000000
vn 0.000000 0.000000 1.000000
s off
g majing:glass
usemtl majing:lambert11SG
f 5/5/5 6/6/6 8/7/7 7/8/8
