# This file uses centimeters as units for non-parametric coordinates.

mtllib shoutao.mtl
g default
v -0.102824 0.035333 -0.052964
v 0.132796 0.035333 -0.052964
v -0.102824 0.247391 -0.052964
v 0.132796 0.247391 -0.052964
vt 0.000000 0.000000
vt 1.000000 0.000000
vt 1.000000 1.000000
vt 0.000000 1.000000
vn 0.000000 0.000000 1.000000
vn 0.000000 0.000000 1.000000
vn 0.000000 0.000000 1.000000
vn 0.000000 0.000000 1.000000
s off
g shoutao1:pPlane3
usemtl shoutao1:lambert19SG
f 1/1/1 2/2/2 4/3/3 3/4/4
g default
v -0.075642 -0.063498 -0.000739
v 0.099642 -0.063498 -0.000739
v -0.075642 0.002141 -0.000739
v 0.099642 0.002141 -0.000739
vt 0.000000 0.000000
vt 1.000000 0.000000
vt 1.000000 1.000000
vt 0.000000 1.000000
vn 0.000000 0.000000 1.000000
vn 0.000000 0.000000 1.000000
vn 0.000000 0.000000 1.000000
vn 0.000000 0.000000 1.000000
s off
g shoutao1:pPlane1
usemtl shoutao1:lambert17SG
f 5/5/5 6/6/6 8/7/7 7/8/8
g default
v -0.130698 -0.314800 0.012960
v 0.154698 -0.314800 0.012960
v -0.130698 0.192572 0.012960
v 0.154698 0.192572 0.012960
vt 0.000000 0.000000
vt 1.000000 0.000000
vt 1.000000 1.000000
vt 0.000000 1.000000
vn 0.000000 0.000000 1.000000
vn 0.000000 0.000000 1.000000
vn 0.000000 0.000000 1.000000
vn 0.000000 0.000000 1.000000
s off
g shoutao1:pPlane2
usemtl shoutao1:lambert18SG
f 9/9/9 10/10/10 12/11/11 11/12/12
