# This file uses centimeters as units for non-parametric coordinates.

mtllib niu.mtl
g default
v -0.136077 0.006533 -0.029454
v 0.136077 0.006533 -0.029454
v -0.136077 0.165824 -0.029454
v 0.136077 0.165824 -0.029454
vt 0.000000 0.000000
vt 1.000000 0.000000
vt 0.000000 1.000000
vt 1.000000 1.000000
vn 0.000000 0.000000 1.000000
vn 0.000000 0.000000 1.000000
vn 0.000000 0.000000 1.000000
vn 0.000000 0.000000 1.000000
s off
g pPlane2
usemtl lambert16SG
f 1/1/1 2/2/2 4/4/3 3/3/4
g default
v -0.068135 -0.106456 0.025513
v 0.068135 -0.106456 0.025513
v -0.068135 0.023837 0.025513
v 0.068135 0.023837 0.025513
vt 0.000000 0.000000
vt 1.000000 0.000000
vt 0.000000 1.000000
vt 1.000000 1.000000
vn 0.000000 0.000000 1.000000
vn 0.000000 0.000000 1.000000
vn 0.000000 0.000000 1.000000
vn 0.000000 0.000000 1.000000
s off
g pPlane1
usemtl lambert15SG
f 5/5/5 6/6/6 8/8/7 7/7/8
