# This file uses centimeters as units for non-parametric coordinates.

mtllib gougou.mtl
g default
v -0.133314 0.008890 -0.049305
v 0.133314 0.008890 -0.049305
v -0.133314 0.076351 -0.049305
v 0.133314 0.076351 -0.049305
vt 0.000000 0.000000
vt 1.000000 0.000000
vt 1.000000 1.000000
vt 0.000000 1.000000
vn 0.000000 0.000000 1.000000
vn 0.000000 0.000000 1.000000
vn 0.000000 0.000000 1.000000
vn 0.000000 0.000000 1.000000
s off
g gougou:pPlane3
usemtl lambert12SG
f 1/1/1 2/2/2 4/3/3 3/4/4
g default
v -0.088791 -0.062731 0.007642
v 0.088791 -0.062731 0.007642
v -0.088791 -0.014299 0.007642
v 0.088791 -0.014299 0.007642
vt 0.000000 0.000000
vt 1.000000 0.000000
vt 1.000000 1.000000
vt 0.000000 1.000000
vn 0.000000 0.000000 1.000000
vn 0.000000 0.000000 1.000000
vn 0.000000 0.000000 1.000000
vn 0.000000 0.000000 1.000000
s off
g gougou:pPlane1
usemtl gougou:lambert2SG
f 5/5/5 6/6/6 8/7/7 7/8/8
