# This file uses centimeters as units for non-parametric coordinates.

mtllib majing.mtl
g default
v -0.125328 -0.055871 0.015467
v 0.137328 -0.055871 0.015467
v -0.125328 0.025844 0.015467
v 0.137328 0.025844 0.015467
vt 0.000000 0.000000
vt 1.000000 0.000000
vt 0.000000 1.000000
vt 1.000000 1.000000
vn 0.000000 -0.000000 1.000000
vn 0.000000 -0.000000 1.000000
vn 0.000000 -0.000000 1.000000
vn 0.000000 -0.000000 1.000000
s off
g saihong
usemtl lambert2SG
f 1/1/1 2/2/2 4/4/3 3/3/4
g default
v -0.121612 -0.038267 0.021145
v 0.137753 -0.038267 0.021145
v -0.121612 0.038822 0.021145
v 0.137753 0.038822 0.021145
vt 0.000000 0.000000
vt 1.000000 0.000000
vt 1.000000 1.000000
vt 0.000000 1.000000
vn 0.000000 0.000000 1.000000
vn 0.000000 0.000000 1.000000
vn 0.000000 0.000000 1.000000
vn 0.000000 0.000000 1.000000
s off
g glass
usemtl majing:lambert11SG
f 5/5/5 6/6/6 8/7/7 7/8/8
g default
v -0.155497 0.026940 0.009388
v 0.175497 0.026940 0.009388
v -0.155497 0.068314 0.009388
v 0.175497 0.068314 0.009388
vt 0.000000 0.000000
vt 1.000000 0.000000
vt 1.000000 1.000000
vt 0.000000 1.000000
vn 0.000000 0.000000 1.000000
vn 0.000000 0.000000 1.000000
vn 0.000000 0.000000 1.000000
vn 0.000000 0.000000 1.000000
s off
g eyebrow
usemtl majing:lambert13SG
f 9/9/9 10/10/10 12/11/11 11/12/12
