# This file uses centimeters as units for non-parametric coordinates.

mtllib 2017.mtl
g default
v -0.063943 0.084194 -0.030491
v 0.063943 0.084194 -0.030491
v -0.063943 0.173866 -0.030491
v 0.063943 0.173866 -0.030491
vt 0.000000 0.000000
vt 1.000000 0.000000
vt 0.000000 1.000000
vt 1.000000 1.000000
vn 0.000000 0.000000 -1.000000
vn 0.000000 0.000000 -1.000000
vn 0.000000 0.000000 -1.000000
vn 0.000000 0.000000 -1.000000
s off
g pPlane1
usemtl lambert6SG
f 1/1/1 3/3/2 4/4/3 2/2/4
g default
v -0.065602 -0.040198 -0.001431
v 0.065602 -0.040198 -0.001431
v -0.065602 -0.012867 -0.001431
v 0.065602 -0.012867 -0.001431
vt 0.000000 0.000000
vt 1.000000 0.000000
vt 0.000000 1.000000
vt 1.000000 1.000000
vn 0.000000 0.000000 1.000000
vn 0.000000 0.000000 1.000000
vn 0.000000 0.000000 1.000000
vn 0.000000 0.000000 1.000000
s off
g pPlane2
usemtl lambert8SG
f 5/5/5 6/6/6 8/8/7 7/7/8
