# This file uses centimeters as units for non-parametric coordinates.

mtllib huahuan.mtl
g default
v -0.148438 -0.072640 -0.029664
v 0.175356 -0.072640 -0.029664
v -0.148438 0.156336 -0.029664
v 0.175356 0.156336 -0.029664
vt 0.000000 0.000000
vt 1.000000 0.000000
vt 1.000000 1.000000
vt 0.000000 1.000000
vn 0.000000 0.000000 1.000000
vn 0.000000 0.000000 1.000000
vn 0.000000 0.000000 1.000000
vn 0.000000 0.000000 1.000000
s off
g huahuan1:pPlane1
usemtl huahuan1:lambert14SG
f 1/1/1 2/2/2 4/3/3 3/4/4
